<?xml version="1.0" encoding="UTF-8" standalone="no"?>
<!-- Creator: Glef 2021 -->

<svg
   xml:space="preserve"
   width="100%"
   height="100%"
   version="1.1"
   shape-rendering="geometricPrecision"
   text-rendering="geometricPrecision"
   image-rendering="optimizeQuality"
   fill-rule="evenodd"
   clip-rule="evenodd"
   viewBox="0 0 3269.53 4060.91"
   id="svg6"
   sodipodi:docname="md1.svg"
   inkscape:version="1.1.1 (3bf5ae0d25, 2021-09-20)"
   xmlns:inkscape="http://www.inkscape.org/namespaces/inkscape"
   xmlns:sodipodi="http://sodipodi.sourceforge.net/DTD/sodipodi-0.dtd"
   xmlns="http://www.w3.org/2000/svg"
   xmlns:svg="http://www.w3.org/2000/svg"><defs
   id="defs10" /><sodipodi:namedview
   id="namedview8"
   pagecolor="#ffffff"
   bordercolor="#666666"
   borderopacity="1.0"
   inkscape:pageshadow="2"
   inkscape:pageopacity="0.0"
   inkscape:pagecheckerboard="0"
   showgrid="false"
   inkscape:zoom="0.20488019"
   inkscape:cx="1603.3761"
   inkscape:cy="2030.455"
   inkscape:window-width="1920"
   inkscape:window-height="1018"
   inkscape:window-x="-8"
   inkscape:window-y="-8"
   inkscape:window-maximized="1"
   inkscape:current-layer="svg6" />
 <g
   id="Layer_1">
  <metadata
   id="Layer1" />
  <path
   fill="#52127D"
   fill-rule="nonzero"
   d="M1077.91 3360.25l0 -866.87c0,-200.68 88.15,-366.88 264.45,-497.9 176.29,-131.73 461.26,-197.24 854.09,-197.24 77.01,0 159.96,7.29 249.03,21.38 80.07,12.67 167.23,34.34 240,54.56l0 -1033.78c0,-142.06 -32.27,-234.52 -96.72,-276.42 -64.46,-41.92 -142.16,-62.47 -232.27,-62.47 -68.17,0 -139.97,13.68 -213.24,41.07 -74.02,28.24 -137.25,69.13 -189.06,124.09 -52.23,55.43 -87.19,123.03 -87.19,203.68l0 719.32c-20.09,2.67 -39.8,5.62 -59.11,8.89 -221.3,28.44 -392.27,87.49 -512.59,177.4 -3.91,2.9 -7.76,5.82 -11.58,8.77l0 -944.33c0,-142.06 -34.46,-234.49 -103.32,-276.42 -68.86,-41.92 -148.74,-62.47 -240.35,-62.47 -70.33,0 -142.89,14.54 -216.88,43.64 -40.6,15.81 -77.72,36.16 -111.39,60.78l0 3402.6 -611.78 0 0 -3961.23c203.92,0 407.86,0 611.78,0l0 193.67c150.87,-138.79 284.9,-240.97 525.39,-240.97 148.76,0 276.99,26.54 384.71,80.45 106.97,53.06 190.51,137.78 249.12,253.32 84.26,-98.43 187.59,-178.87 309.96,-240.48 122.37,-62.48 274.04,-93.29 455.77,-93.29 222.02,0 399.35,70.18 532.72,209.68 133.37,139.5 200.04,322.68 200.04,550.27 0,1084.94 0.04,2169.87 0.04,3254.75l-350.8 0 -72.74 -127.58c-87.28,50.35 -189.98,91.72 -309.8,124.82 -119.8,32.42 -249.03,48.97 -387.68,48.97 -364.57,0 -633.29,-62.07 -808.72,-186.89 -174.58,-124.13 -261.88,-295.85 -261.88,-513.77zm1607.57 -1106c-44.4,-15.28 -108.12,-34.47 -171.54,-47.75 -77.91,-16.31 -164.31,-24.14 -260.16,-24.14 -154.9,0 -276.42,22.08 -362.86,66.21 -87.3,44.82 -130.93,122.07 -130.93,232.4l0 886.86c0,111.03 41.08,189.64 121.52,236.54 81.3,47.59 196.83,71.03 347.46,71.03 93.28,0 182.28,-8.28 266.15,-24.14 76.56,-15.25 140.02,-34.03 190.36,-56.88l0 -1340.13z"
   id="path3" />
 </g>
</svg>
