<?xml version="1.0" encoding="UTF-8"?>
<!DOCTYPE svg PUBLIC "-//W3C//DTD SVG 1.1//EN" "http://www.w3.org/Graphics/SVG/1.1/DTD/svg11.dtd">
<!-- Creator: Glef -->
<svg xmlns="http://www.w3.org/2000/svg" xml:space="preserve" width="100%" height="100%" version="1.1" viewBox="0 0 11471 10986" >
 <g>
   <path fill="black" d="M9710 10986l-276 0 -1275 -1432c127,-2333 999,-5057 2619,-7466l693 6c-1030,1865 -1642,3858 -1838,5884 -102,1073 -72,2109 77,3008z"/>
  <path fill="#6E4A7E" d="M8464 10412c-579,276 -1333,469 -1974,469 -1254,0 -2865,-306 -2865,-1875l0 -2320c0,-2004 2911,-2044 4302,-1657l0 -2766c0,-1561 -2190,-890 -2190,80l0 1925c-548,73 -1112,175 -1561,522l0 -2527c0,-978 -1000,-1143 -1597,-707l0 -977c740,-869 2370,-720 2901,328 1280,-1495 4010,-1161 4010,1141l0 1471c-624,1361 -1017,2481 -1357,4116l-206 -187 0 -1401c-680,-234 -2477,-468 -2477,607l0 2373c0,1121 1678,865 2388,690l626 696z"/>
  <path fill="#6E4A7E" d="M2314 10741l-1489 0c0,-2867 281,-7914 -825,-10600 546,0 1769,0 2314,0 0,173 0,7000 0,10600z"/>
 </g>
</svg>
